<svg xmlns="http://www.w3.org/2000/svg" xmlns:xlink="http://www.w3.org/1999/xlink" width="32" height="32" viewBox="0 0 32 32">
  <defs>
    <clipPath id="clip-path">
      <rect id="Rectangle_4" data-name="Rectangle 4" width="32" height="32" transform="translate(564 436)" fill="#eee"/>
    </clipPath>
  </defs>
  <g id="Mask_Group_1" data-name="Mask Group 1" transform="translate(-564 -436)" clip-path="url(#clip-path)">
    <g id="bootstrap" transform="translate(564 436)">
      <path id="Path_1" data-name="Path 1" d="M0,27.874A4.126,4.126,0,0,0,4.126,32H27.874A4.126,4.126,0,0,0,32,27.874V4.126A4.126,4.126,0,0,0,27.874,0H4.126A4.126,4.126,0,0,0,0,4.126V27.874Z" fill="#563d7c"/>
      <path id="Path_2" data-name="Path 2" d="M14.4,14.944V10.412h3.989a6.2,6.2,0,0,1,1.1.1,2.743,2.743,0,0,1,.936.339,1.809,1.809,0,0,1,.651.678,2.253,2.253,0,0,1,.244,1.113,2.05,2.05,0,0,1-.733,1.764,3.062,3.062,0,0,1-1.872.543H14.4ZM10.136,7.1V26.477h9.389a9.906,9.906,0,0,0,2.537-.326,6.786,6.786,0,0,0,2.2-1,4.946,4.946,0,0,0,1.533-1.75,5.331,5.331,0,0,0,.57-2.537,5.369,5.369,0,0,0-.882-3.107,4.657,4.657,0,0,0-2.673-1.8,4.829,4.829,0,0,0,1.968-1.6A4.244,4.244,0,0,0,25.44,11.9a5.2,5.2,0,0,0-.448-2.279,3.724,3.724,0,0,0-1.262-1.479,5.446,5.446,0,0,0-1.954-.8A12.062,12.062,0,0,0,19.253,7.1H10.136ZM14.4,23.166V17.847h4.64a3.59,3.59,0,0,1,2.225.638,2.505,2.505,0,0,1,.841,2.13,2.663,2.663,0,0,1-.258,1.248,2.048,2.048,0,0,1-.692.773,2.93,2.93,0,0,1-1,.407,5.7,5.7,0,0,1-1.194.122H14.4Z" transform="translate(-1.126 -0.789)" fill="#fff"/>
    </g>
  </g>
</svg>
