<svg xmlns="http://www.w3.org/2000/svg" xmlns:xlink="http://www.w3.org/1999/xlink" width="32" height="32" viewBox="0 0 32 32">
  <defs>
    <clipPath id="clip-path">
      <rect id="Rectangle_3" data-name="Rectangle 3" width="32" height="32" transform="translate(523 436)" fill="#fff"/>
    </clipPath>
  </defs>
  <g id="Group_108" data-name="Group 108" transform="translate(-726 112)">
    <g id="Mask_Group_4" data-name="Mask Group 4" transform="translate(203 -548)" opacity="0" clip-path="url(#clip-path)">
      <g id="javascript" transform="translate(523 436)">
        <path id="Path_19" data-name="Path 19" d="M4.8,4.8h32v32H4.8Z" transform="translate(-4.8 -4.8)" fill="#fff"/>
        <path id="Path_20" data-name="Path 20" d="M14.266,33.378,16.714,31.9c.473.838.9,1.546,1.933,1.546.988,0,1.611-.387,1.611-1.89V21.328h3.007V31.595c0,3.115-1.826,4.532-4.489,4.532a4.667,4.667,0,0,1-4.511-2.749" transform="translate(-5.852 -6.636)" fill="#fff"/>
        <path id="Path_21" data-name="Path 21" d="M26.229,33.034l2.448-1.418a3.273,3.273,0,0,0,2.964,1.826c1.246,0,2.041-.623,2.041-1.482,0-1.031-.816-1.4-2.191-2l-.752-.323c-2.17-.923-3.609-2.083-3.609-4.532,0-2.256,1.718-3.974,4.4-3.974a4.441,4.441,0,0,1,4.275,2.406l-2.341,1.5a2.048,2.048,0,0,0-1.933-1.289,1.308,1.308,0,0,0-1.439,1.289c0,.9.559,1.268,1.847,1.826l.752.322c2.556,1.1,4,2.213,4,4.726,0,2.707-2.127,4.189-4.983,4.189a5.777,5.777,0,0,1-5.477-3.072" transform="translate(-7.181 -6.615)" fill="#fff"/>
      </g>
    </g>
    <g id="docker" transform="translate(726.017 -107.48)">
      <path id="Path_36" data-name="Path 36" d="M31.678,8.683A4.213,4.213,0,0,0,29.066,8a8.173,8.173,0,0,0-1.352.12,5.07,5.07,0,0,0-2.287-3.427l-.461-.268-.3.43a6.328,6.328,0,0,0-.815,1.9,4.5,4.5,0,0,0,.534,3.547,6.316,6.316,0,0,1-2.331.565H.98a1,1,0,0,0-.995.995A15.041,15.041,0,0,0,.9,17.278a8.114,8.114,0,0,0,3.206,4.17,14.2,14.2,0,0,0,7.035,1.513,21.642,21.642,0,0,0,3.9-.357,16.091,16.091,0,0,0,5.1-1.854A13.991,13.991,0,0,0,23.628,17.9a18.89,18.89,0,0,0,3.4-5.863h.3A4.872,4.872,0,0,0,30.9,10.686a3.96,3.96,0,0,0,.951-1.4l.133-.385-.3-.221ZM18.633,10.256h2.821A.251.251,0,0,0,21.706,10V7.48a.251.251,0,0,0-.253-.253H18.633a.251.251,0,0,0-.253.253h0V10a.261.261,0,0,0,.253.253ZM14.7,3.029h2.821a.251.251,0,0,0,.253-.253V.253A.262.262,0,0,0,17.521,0H14.7a.251.251,0,0,0-.253.253h0V2.776a.26.26,0,0,0,.253.253Zm0,3.62h2.821a.262.262,0,0,0,.253-.253V3.873a.262.262,0,0,0-.253-.253H14.7a.251.251,0,0,0-.253.253h0V6.4a.258.258,0,0,0,.253.253Zm-3.9,0h2.821a.262.262,0,0,0,.253-.253V3.873a.251.251,0,0,0-.253-.253H10.8a.251.251,0,0,0-.253.253h0V6.4a.25.25,0,0,0,.253.253Zm-3.964,0H9.653A.262.262,0,0,0,9.905,6.4V3.873a.251.251,0,0,0-.253-.253H6.832a.251.251,0,0,0-.253.253V6.4a.272.272,0,0,0,.253.253ZM14.7,10.256h2.821A.251.251,0,0,0,17.773,10V7.48a.251.251,0,0,0-.253-.253H14.7a.251.251,0,0,0-.253.253h0V10a.25.25,0,0,0,.253.253Zm-3.9,0h2.821A.251.251,0,0,0,13.869,10h0V7.48a.251.251,0,0,0-.253-.253H10.8a.251.251,0,0,0-.253.253h0V10a.242.242,0,0,0,.253.253Zm-3.964,0H9.653A.251.251,0,0,0,9.905,10h0V7.48a.251.251,0,0,0-.253-.253H6.832a.251.251,0,0,0-.253.253V10a.261.261,0,0,0,.253.253Zm-3.888,0H5.764A.251.251,0,0,0,6.017,10h0V7.48a.251.251,0,0,0-.253-.253H2.943a.251.251,0,0,0-.253.253h0V10a.261.261,0,0,0,.253.253Z" fill="#0091e2"/>
    </g>
  </g>
</svg>
