<svg xmlns="http://www.w3.org/2000/svg" xmlns:xlink="http://www.w3.org/1999/xlink" width="36" height="36" viewBox="0 0 36 36">
  <defs>
    <clipPath id="clip-path">
      <rect id="Rectangle_6" data-name="Rectangle 6" width="36" height="36" transform="translate(646 436)" fill="#eee"/>
    </clipPath>
  </defs>
  <g id="Mask_Group_6" data-name="Mask Group 6" transform="translate(-646 -436)" clip-path="url(#clip-path)">
    <path id="git-scm" d="M40.12,21.2,24.4,5.479a2.317,2.317,0,0,0-3.278,0L17.863,8.741,22,12.881a2.727,2.727,0,0,1,2.833.66,2.756,2.756,0,0,1,.654,2.85l3.99,3.99a2.755,2.755,0,1,1-1.654,1.556L24.1,18.216v9.793a2.812,2.812,0,0,1,.731.522,2.76,2.76,0,1,1-3.9,0,2.65,2.65,0,0,1,.9-.6V18.045a2.758,2.758,0,0,1-1.5-3.618l-4.084-4.081L5.479,21.111a2.317,2.317,0,0,0,0,3.279L21.2,40.106a2.318,2.318,0,0,0,3.278,0L40.12,24.486a2.317,2.317,0,0,0,0-3.279" transform="translate(641.2 431.208)" fill="#f03c2e"/>
  </g>
</svg>
