<svg xmlns="http://www.w3.org/2000/svg" xmlns:xlink="http://www.w3.org/1999/xlink" width="36" height="36" viewBox="0 0 36 36">
  <defs>
    <clipPath id="clip-path">
      <rect id="Rectangle_7" data-name="Rectangle 7" width="36" height="36" transform="translate(687 436)" fill="#eee"/>
    </clipPath>
  </defs>
  <g id="Mask_Group_7" data-name="Mask Group 7" transform="translate(-687 -436)" clip-path="url(#clip-path)">
    <g id="java" transform="translate(682.125 431.2)">
      <path id="Path_26" data-name="Path 26" d="M18.15,32.64s-1.375.8.98,1.07a20.605,20.605,0,0,0,7.454-.315,13.062,13.062,0,0,0,1.982.966C21.518,37.381,12.615,34.187,18.15,32.64ZM17.289,28.7s-1.542,1.142.814,1.386a29.084,29.084,0,0,0,9.619-.461,4.253,4.253,0,0,0,1.48.9c-8.52,2.492-18.01.2-11.914-1.827Z" fill="#0074bd"/>
      <path id="Path_27" data-name="Path 27" d="M24.549,22.013c1.738,2-.456,3.8-.456,3.8s4.409-2.276,2.385-5.127c-1.892-2.658-3.342-3.978,4.509-8.531,0,0-12.324,3.077-6.438,9.86Z" fill="#ea2d2e"/>
      <path id="Path_28" data-name="Path 28" d="M33.87,35.556s1.018.839-1.121,1.488c-4.067,1.232-16.931,1.6-20.5.049-1.284-.559,1.124-1.334,1.882-1.5a4.918,4.918,0,0,1,1.241-.14C13.94,34.45,6.136,37.431,11.4,38.286,25.773,40.616,37.6,37.237,33.87,35.556ZM18.812,24.615S12.27,26.169,16.5,26.734a49.142,49.142,0,0,0,8.655-.094c2.708-.228,5.426-.714,5.426-.714a11.555,11.555,0,0,0-1.645.881c-6.645,1.748-19.48.934-15.785-.853a12.37,12.37,0,0,1,5.665-1.339Zm11.737,6.56C37.3,27.667,34.181,24.294,32,24.748a5.066,5.066,0,0,0-.772.208,1.227,1.227,0,0,1,.577-.445c4.312-1.516,7.629,4.471-1.391,6.842a.612.612,0,0,0,.135-.178Z" fill="#0074bd"/>
      <path id="Path_29" data-name="Path 29" d="M26.478,4.8s3.74,3.742-3.548,9.5c-5.845,4.616-1.333,7.248,0,10.255-3.412-3.078-5.915-5.788-4.236-8.31,2.465-3.7,9.295-5.5,7.786-11.44Z" fill="#ea2d2e"/>
      <path id="Path_30" data-name="Path 30" d="M19.476,40.687c6.482.414,16.439-.231,16.675-3.3,0,0-.453,1.163-5.358,2.085a53.265,53.265,0,0,1-16.406.252s.829.687,5.089.961Z" fill="#0074bd"/>
    </g>
  </g>
</svg>
