<svg xmlns="http://www.w3.org/2000/svg" xmlns:xlink="http://www.w3.org/1999/xlink" width="32" height="32" viewBox="0 0 32 32">
  <defs>
    <clipPath id="clip-path">
      <rect id="Rectangle_3" data-name="Rectangle 3" width="32" height="32" transform="translate(523 436)" fill="#fff"/>
    </clipPath>
  </defs>
  <g id="Group_107" data-name="Group 107" transform="translate(-766 112)">
    <g id="Mask_Group_4" data-name="Mask Group 4" transform="translate(243 -548)" opacity="0" clip-path="url(#clip-path)">
      <g id="javascript" transform="translate(523 436)">
        <path id="Path_19" data-name="Path 19" d="M4.8,4.8h32v32H4.8Z" transform="translate(-4.8 -4.8)" fill="#fff"/>
        <path id="Path_20" data-name="Path 20" d="M14.266,33.378,16.714,31.9c.473.838.9,1.546,1.933,1.546.988,0,1.611-.387,1.611-1.89V21.328h3.007V31.595c0,3.115-1.826,4.532-4.489,4.532a4.667,4.667,0,0,1-4.511-2.749" transform="translate(-5.852 -6.636)" fill="#fff"/>
        <path id="Path_21" data-name="Path 21" d="M26.229,33.034l2.448-1.418a3.273,3.273,0,0,0,2.964,1.826c1.246,0,2.041-.623,2.041-1.482,0-1.031-.816-1.4-2.191-2l-.752-.323c-2.17-.923-3.609-2.083-3.609-4.532,0-2.256,1.718-3.974,4.4-3.974a4.441,4.441,0,0,1,4.275,2.406l-2.341,1.5a2.048,2.048,0,0,0-1.933-1.289,1.308,1.308,0,0,0-1.439,1.289c0,.9.559,1.268,1.847,1.826l.752.322c2.556,1.1,4,2.213,4,4.726,0,2.707-2.127,4.189-4.983,4.189a5.777,5.777,0,0,1-5.477-3.072" transform="translate(-7.181 -6.615)" fill="#fff"/>
      </g>
    </g>
    <g id="jest-icon" transform="translate(767.594 -112)">
      <path id="Path_37" data-name="Path 37" d="M27.94,15.6a4.113,4.113,0,0,0-3.072-3.971L28.812,0H9.264l3.953,11.666a4.1,4.1,0,0,0-1.229,7.291,11.1,11.1,0,0,1-4.8,3.819,2.76,2.76,0,0,1-1.146-3.228,4.111,4.111,0,1,0-4.117-1.037l-.2.394A15.817,15.817,0,0,0,.152,23.211c-.532,3.21.34,5.787,2.44,7.245a6.727,6.727,0,0,0,3.888,1.229c2.412,0,4.86-1.211,7.226-2.385a26.371,26.371,0,0,1,5.145-2.128c.634-.156,1.293-.247,1.99-.348a11.222,11.222,0,0,0,4.182-1.174,5.916,5.916,0,0,0,2.88-4.081,6.053,6.053,0,0,0-.587-3.788,4.09,4.09,0,0,0,.614-2.178Zm-1.788,0a2.311,2.311,0,0,1-4.623,0,2.381,2.381,0,0,1,.3-1.146,2.5,2.5,0,0,1,.257-.366,2,2,0,0,1,.321-.3l.01-.01.239-.165a.01.01,0,0,0,.01-.01c.037-.018.073-.046.11-.064.01,0,.018-.01.028-.01a.75.75,0,0,1,.129-.049c.044-.016.087-.035.129-.054.01,0,.018-.01.028-.01.037-.01.073-.028.11-.037.01,0,.028-.01.037-.01l.129-.028h.01l.138-.028a.051.051,0,0,0,.037-.01c.037,0,.073-.01.11-.01H23.7c.046,0,.092-.01.147-.01h.119a.376.376,0,0,1,.1.009h.018a2.023,2.023,0,0,1,.22.037A2.331,2.331,0,0,1,26.149,15.6ZM11.827,1.834H26.253L22.937,11.6a3.594,3.594,0,0,0-.413.119L19.04,4.613l-3.494,7.062a3.286,3.286,0,0,0-.431-.1ZM18.384,14.8a4.068,4.068,0,0,0-1.237-2.2l1.9-3.833,1.917,3.916A4.143,4.143,0,0,0,19.816,14.8ZM13.79,13.352l.129-.028h.028c.037-.01.073-.01.11-.018h.037c.037,0,.064-.01.1-.01h.358c.037,0,.064.01.092.01a.078.078,0,0,1,.046.01c.037.01.064.01.1.018a.064.064,0,0,1,.037.01l.129.028a.471.471,0,0,1,.119.037c.01,0,.018.01.037.01a.407.407,0,0,1,.092.037c.01,0,.018.01.028.01.037.018.073.028.11.046h.01a.5.5,0,0,1,.119.064,1.289,1.289,0,0,1,.119.064c.01,0,.01.01.018.01.037.018.064.046.1.064l.01.01c.11.083.211.174.312.266l.01.01a2.348,2.348,0,0,1,.257.33,2.313,2.313,0,1,1-2.5-.972Zm-9.024-.064A2.311,2.311,0,1,1,2.454,15.6a2.313,2.313,0,0,1,2.311-2.311ZM26.1,21.239a4.049,4.049,0,0,1-1.99,2.815,9.689,9.689,0,0,1-3.521.94c-.706.1-1.449.211-2.164.385A27.652,27.652,0,0,0,12.9,27.645c-2.274,1.128-4.42,2.192-6.41,2.192a4.811,4.811,0,0,1-2.843-.908C1.63,27.535,1.731,24.921,1.965,23.49a14.05,14.05,0,0,1,1.421-3.8c.037-.073.064-.138.1-.211a3.581,3.581,0,0,0,.634.165,4.666,4.666,0,0,0,2.568,4.943l.348.183.376-.138a12.505,12.505,0,0,0,4.4-2.733,12.32,12.32,0,0,0,1.907-2.265,3.681,3.681,0,0,0,.634.046,4.113,4.113,0,0,0,3.971-3.072h1.541a4.1,4.1,0,0,0,3.971,3.072,4.059,4.059,0,0,0,2.074-.569,4.177,4.177,0,0,1,.182,2.119Z" transform="translate(0)" fill="#99424f"/>
    </g>
  </g>
</svg>
