<svg xmlns="http://www.w3.org/2000/svg" xmlns:xlink="http://www.w3.org/1999/xlink" width="34" height="34" viewBox="0 0 34 34">
  <defs>
    <clipPath id="clip-path">
      <rect id="Rectangle_8" data-name="Rectangle 8" width="34" height="34" transform="translate(728 436)" fill="#eee"/>
    </clipPath>
  </defs>
  <g id="Mask_Group_8" data-name="Mask Group 8" transform="translate(-728 -436)" clip-path="url(#clip-path)">
    <path id="jquery-original" d="M2.655,8.847C-.356,13.174.019,18.8,2.319,23.4c.055.11.112.219.168.327l.108.207.067.119.12.215q.107.189.219.376l.125.206c.083.134.168.266.255.4l.109.168c.12.179.242.357.369.532l.011.014.062.084c.109.151.222.3.336.447l.127.161q.153.192.311.382l.119.142c.141.166.286.332.433.495l.009.009.017.019c.144.157.291.31.44.464l.141.142c.115.116.233.231.351.344l.144.136c.158.149.318.3.481.439l.008.006.084.072c.144.124.29.248.438.369l.181.144q.181.145.365.285l.195.148q.2.149.409.293l.149.106.041.029c.13.09.264.176.4.263l.172.115c.2.129.412.257.622.381l.172.1q.231.133.467.262c.085.046.172.089.258.133.111.058.221.117.334.174l.077.037.137.066c.175.084.351.166.529.245l.112.05q.306.134.618.257l.15.059c.192.074.387.147.583.216l.073.025c.215.075.432.145.65.213l.157.047a6.358,6.358,0,0,0,.671.189c14.558,2.655,18.787-8.748,18.787-8.748-3.552,4.627-9.856,5.848-15.829,4.489-.226-.051-.446-.122-.667-.187l-.166-.05q-.323-.1-.642-.209l-.088-.032c-.191-.067-.379-.138-.566-.21l-.159-.063q-.308-.122-.611-.254l-.122-.054c-.173-.079-.345-.158-.516-.24l-.149-.072c-.134-.065-.267-.135-.4-.2-.088-.047-.178-.091-.266-.139-.162-.087-.32-.176-.478-.268l-.161-.09c-.21-.123-.417-.251-.622-.381l-.168-.112c-.149-.1-.3-.194-.443-.294l-.142-.1q-.211-.149-.419-.3l-.185-.14c-.127-.1-.253-.195-.378-.3l-.168-.135c-.159-.131-.316-.262-.471-.4l-.052-.043c-.168-.147-.332-.3-.495-.45l-.139-.134c-.12-.115-.239-.23-.355-.349l-.139-.139q-.222-.228-.436-.461l-.022-.023c-.151-.165-.3-.333-.442-.5l-.116-.138c-.108-.13-.214-.261-.319-.394l-.117-.145c-.125-.163-.248-.325-.368-.49C3.545,17.229,2.353,10.99,5,5.866M12,5.2a10.466,10.466,0,0,0-.361,10.64,13.805,13.805,0,0,0,.963,1.607,7.636,7.636,0,0,0,1.121,1.4c.157.173.321.341.489.507l.129.127c.163.158.328.313.5.463l.02.017,0,0c.189.166.384.325.583.482l.132.1c.2.153.4.3.609.445l.018.013c.092.063.185.122.278.183l.132.087c.148.1.3.188.452.277l.064.037c.132.076.265.151.4.223l.142.074c.093.048.185.1.279.145l.042.019c.192.094.385.186.583.272l.129.053c.158.067.318.133.478.194l.2.075c.145.054.291.1.439.153l.2.064a4.857,4.857,0,0,0,.634.183C31.9,24.913,34.5,16.259,34.5,16.259c-2.339,3.369-6.869,4.976-11.7,3.721-.215-.056-.426-.118-.637-.184l-.191-.062q-.224-.072-.445-.153l-.2-.075c-.162-.062-.321-.126-.479-.193l-.129-.055q-.3-.129-.586-.273c-.1-.048-.2-.1-.294-.15l-.17-.087c-.125-.068-.249-.138-.372-.21l-.089-.05q-.228-.133-.451-.275l-.136-.091c-.1-.063-.2-.128-.292-.193-.207-.143-.409-.293-.608-.444l-.137-.108a13.552,13.552,0,0,1-4.59-6.543,10.151,10.151,0,0,1,.792-8.144m6.08-.212a6.55,6.55,0,0,0-.519,6.32,8.9,8.9,0,0,0,5.109,4.775c.093.034.185.065.279.1l.123.039a3.587,3.587,0,0,0,.4.116c6.207,1.2,7.89-3.185,8.338-3.83-1.474,2.123-3.953,2.633-6.993,1.895-.24-.058-.5-.145-.736-.227a8.891,8.891,0,0,1-2.405-1.3c-2.721-2.065-4.411-6-2.636-9.21" transform="translate(727.505 435.468)" fill="#0868ac"/>
  </g>
</svg>
