<svg xmlns="http://www.w3.org/2000/svg" xmlns:xlink="http://www.w3.org/1999/xlink" width="32" height="32" viewBox="0 0 32 32">
  <defs>
    <clipPath id="clip-path">
      <rect id="Rectangle_3" data-name="Rectangle 3" width="32" height="32" transform="translate(523 436)" fill="#fff"/>
    </clipPath>
  </defs>
  <g id="Group_107" data-name="Group 107" transform="translate(-806 112)">
    <g id="Group_106" data-name="Group 106" opacity="0">
      <g id="Mask_Group_4" data-name="Mask Group 4" transform="translate(283 -548)" clip-path="url(#clip-path)">
        <g id="javascript" transform="translate(523 436)">
          <path id="Path_19" data-name="Path 19" d="M4.8,4.8h32v32H4.8Z" transform="translate(-4.8 -4.8)" fill="#fff"/>
          <path id="Path_20" data-name="Path 20" d="M14.266,33.378,16.714,31.9c.473.838.9,1.546,1.933,1.546.988,0,1.611-.387,1.611-1.89V21.328h3.007V31.595c0,3.115-1.826,4.532-4.489,4.532a4.667,4.667,0,0,1-4.511-2.749" transform="translate(-5.852 -6.636)" fill="#fff"/>
          <path id="Path_21" data-name="Path 21" d="M26.229,33.034l2.448-1.418a3.273,3.273,0,0,0,2.964,1.826c1.246,0,2.041-.623,2.041-1.482,0-1.031-.816-1.4-2.191-2l-.752-.323c-2.17-.923-3.609-2.083-3.609-4.532,0-2.256,1.718-3.974,4.4-3.974a4.441,4.441,0,0,1,4.275,2.406l-2.341,1.5a2.048,2.048,0,0,0-1.933-1.289,1.308,1.308,0,0,0-1.439,1.289c0,.9.559,1.268,1.847,1.826l.752.322c2.556,1.1,4,2.213,4,4.726,0,2.707-2.127,4.189-4.983,4.189a5.777,5.777,0,0,1-5.477-3.072" transform="translate(-7.181 -6.615)" fill="#fff"/>
        </g>
      </g>
    </g>
    <g id="nuxtjs" transform="translate(801.318 -129.5)">
      <path id="Path_36" data-name="Path 36" d="M18.841,24.133a2.292,2.292,0,0,0-3.954,0L5.309,40.6A2.266,2.266,0,0,0,7.286,44h7.476a2.189,2.189,0,0,1-.461-2.766L21.555,28.8Z" transform="translate(0 0)" fill="#80eec0" fill-rule="evenodd"/>
      <path id="Path_37" data-name="Path 37" d="M56.182,37.927a1.907,1.907,0,0,1,3.273,0L67.38,51.4a1.854,1.854,0,0,1-1.636,2.782H49.892A1.855,1.855,0,0,1,48.256,51.4Z" transform="translate(-31.273 -10.182)" fill="#00dc82"/>
    </g>
  </g>
</svg>
