<svg xmlns="http://www.w3.org/2000/svg" xmlns:xlink="http://www.w3.org/1999/xlink" width="38" height="38" viewBox="0 0 38 38">
  <defs>
    <clipPath id="clip-path">
      <rect id="Rectangle_3" data-name="Rectangle 3" width="38" height="38" transform="translate(0)" fill="#fff"/>
    </clipPath>
  </defs>
  <g id="Group_107" data-name="Group 107" transform="translate(-806 112)">
    <g id="Group_106" data-name="Group 106" transform="translate(806 -112)" opacity="0">
      <g id="Mask_Group_4" data-name="Mask Group 4" transform="translate(0)" clip-path="url(#clip-path)">
        <g id="javascript">
          <path id="Path_19" data-name="Path 19" d="M4.8,4.8H42.969V42.969H4.8Z" transform="translate(-4.8 -4.8)" fill="#fff"/>
          <path id="Path_20" data-name="Path 20" d="M14.266,35.7l2.92-1.763c.564,1,1.074,1.844,2.306,1.844,1.178,0,1.922-.462,1.922-2.254v-12.2H25V33.574c0,3.716-2.178,5.406-5.354,5.406A5.567,5.567,0,0,1,14.265,35.7" transform="translate(-4.23 -3.804)" fill="#fff"/>
          <path id="Path_21" data-name="Path 21" d="M26.229,35.331l2.92-1.691a3.9,3.9,0,0,0,3.535,2.178c1.486,0,2.434-.743,2.434-1.768,0-1.23-.973-1.67-2.613-2.386l-.9-.385c-2.588-1.1-4.3-2.485-4.3-5.406,0-2.691,2.049-4.74,5.248-4.74a5.3,5.3,0,0,1,5.1,2.87l-2.792,1.789a2.443,2.443,0,0,0-2.306-1.537,1.56,1.56,0,0,0-1.716,1.537c0,1.074.667,1.512,2.2,2.178l.9.384c3.049,1.312,4.771,2.64,4.771,5.637,0,3.229-2.537,5-5.944,5a6.891,6.891,0,0,1-6.533-3.664" transform="translate(-3.509 -3.819)" fill="#fff"/>
        </g>
      </g>
    </g>
    <g id="nuxtjs" transform="translate(806.38 -105.44)">
      <path id="Path_36" data-name="Path 36" d="M21.509,24.352a2.733,2.733,0,0,0-4.717,0L5.369,43.993a2.7,2.7,0,0,0,2.358,4.055h8.918a2.611,2.611,0,0,1-.55-3.3l8.652-14.83Z" transform="translate(-5 -23)" fill="#80eec0" fill-rule="evenodd"/>
      <path id="Path_37" data-name="Path 37" d="M57.759,38.106a2.275,2.275,0,0,1,3.9,0l9.454,16.07a2.212,2.212,0,0,1-1.951,3.318H50.257a2.212,2.212,0,0,1-1.952-3.318Z" transform="translate(-34.012 -32.446)" fill="#00dc82"/>
    </g>
  </g>
</svg>

