<svg xmlns="http://www.w3.org/2000/svg" width="32" height="32" viewBox="0 0 32 32">
  <g id="Group_2" data-name="Group 2" transform="translate(-769 -436)">
    <rect id="Rectangle_9" data-name="Rectangle 9" width="32" height="32" transform="translate(769 436)" fill="#fff"/>
    <g id="python" transform="translate(769.445 436.321)">
      <path id="Path_31" data-name="Path 31" d="M27.648,12.014c-8,0-7.5,3.46-7.5,3.46v3.6h7.609V20.2H17.122S12,19.564,12,27.684s4.523,7.79,4.523,7.79h2.611V31.686s-.146-4.523,4.4-4.523H31.15s4.251.068,4.251-4.116V16.183S36.045,12,27.69,12Zm-4.206,2.408a1.368,1.368,0,1,1-1.333,1.4V15.8a1.368,1.368,0,0,1,1.368-1.368Z" transform="translate(-12 -12)" fill="#4586b9"/>
      <path id="Path_32" data-name="Path 32" d="M33.252,48.586c8,0,7.5-3.471,7.5-3.471V41.532H33.139V40.4H43.811s5.122.573,5.122-7.5-4.523-7.79-4.523-7.79H41.766v3.738s.147,4.523-4.4,4.523H29.747s-4.254-.064-4.254,4.119v6.911s-.645,4.183,7.711,4.183h.045Zm4.206-2.42a1.368,1.368,0,1,1,1.333-1.4V44.8a1.368,1.368,0,0,1-1.368,1.368h.035Z" transform="translate(-17.378 -17.232)" fill="#ffe634"/>
    </g>
  </g>
</svg>
