<svg xmlns="http://www.w3.org/2000/svg" xmlns:xlink="http://www.w3.org/1999/xlink" width="36" height="36" viewBox="0 0 36 36">
  <defs>
    <clipPath id="clip-path">
      <rect id="Rectangle_10" data-name="Rectangle 10" width="36" height="36" transform="translate(810 436)" fill="#eee"/>
    </clipPath>
  </defs>
  <g id="Mask_Group_9" data-name="Mask Group 9" transform="translate(-810 -436)" clip-path="url(#clip-path)">
    <g id="react" transform="translate(805.2 431.383)">
      <path id="Path_33" data-name="Path 33" d="M22.8,25.8a3.214,3.214,0,1,0-3.214-3.214A3.214,3.214,0,0,0,22.8,25.8Z" fill="#00d8ff"/>
      <path id="Path_34" data-name="Path 34" d="M22.8,29.954a36.495,36.495,0,0,1-11.417-1.543,14.528,14.528,0,0,1-4.7-2.517A4.555,4.555,0,0,1,4.8,22.585c0-2.125,2.335-4.208,6.246-5.571A36.971,36.971,0,0,1,22.8,15.28a36.868,36.868,0,0,1,11.6,1.7,14.626,14.626,0,0,1,4.549,2.4,4.36,4.36,0,0,1,1.851,3.2c0,2.209-2.61,4.447-6.814,5.838A37.028,37.028,0,0,1,22.8,29.954Zm0-13.136a35.934,35.934,0,0,0-11.249,1.648c-3.6,1.256-5.214,2.974-5.214,4.114,0,1.193,1.734,3.069,5.543,4.371A34.983,34.983,0,0,0,22.8,28.417a35.487,35.487,0,0,0,10.7-1.453c3.954-1.31,5.754-3.189,5.754-4.379a2.992,2.992,0,0,0-1.3-2.022,13.107,13.107,0,0,0-4.064-2.127A35.307,35.307,0,0,0,22.8,16.818Z" fill="#00d8ff"/>
      <path id="Path_35" data-name="Path 35" d="M15.5,38.616a3.393,3.393,0,0,1-1.718-.422C11.938,37.132,11.3,34.07,12.073,30a36.971,36.971,0,0,1,4.371-11.048,36.87,36.87,0,0,1,7.268-9.2,14.626,14.626,0,0,1,4.351-2.742,4.36,4.36,0,0,1,3.7,0c1.914,1.1,2.548,4.482,1.655,8.819a37.036,37.036,0,0,1-4.263,10.457,36.495,36.495,0,0,1-7.041,9.12,14.529,14.529,0,0,1-4.53,2.814,6.334,6.334,0,0,1-2.088.395Zm2.28-18.9a35.933,35.933,0,0,0-4.191,10.567c-.711,3.748-.028,6,.964,6.575,1.029.6,3.525.031,6.557-2.618a34.985,34.985,0,0,0,6.72-8.73,35.487,35.487,0,0,0,4.09-10c.841-4.082.114-6.582-.917-7.176a2.992,2.992,0,0,0-2.4.114,13.107,13.107,0,0,0-3.87,2.466,35.311,35.311,0,0,0-6.943,8.806Z" fill="#00d8ff"/>
      <path id="Path_36" data-name="Path 36" d="M30.1,38.633c-1.742,0-3.955-1.054-6.259-3.036a36.973,36.973,0,0,1-7.389-9.3A36.869,36.869,0,0,1,12.113,15.4a14.627,14.627,0,0,1-.2-5.143,4.36,4.36,0,0,1,1.844-3.2c1.912-1.107,5.156.031,8.466,2.97a37.028,37.028,0,0,1,6.93,8.915A36.494,36.494,0,0,1,33.534,29.6a14.528,14.528,0,0,1,.176,5.331,4.555,4.555,0,0,1-1.921,3.285,3.331,3.331,0,0,1-1.691.417ZM17.782,25.519a35.934,35.934,0,0,0,7.061,8.909c2.892,2.488,5.185,3.023,6.171,2.443,1.029-.6,1.787-3.038,1.005-6.987a34.988,34.988,0,0,0-4.206-10.171A35.488,35.488,0,0,0,21.2,11.175c-3.117-2.767-5.644-3.385-6.674-2.789a2.992,2.992,0,0,0-1.1,2.137,13.106,13.106,0,0,0,.2,4.584,35.312,35.312,0,0,0,4.161,10.414Z" fill="#00d8ff"/>
    </g>
  </g>
</svg>
