<svg xmlns="http://www.w3.org/2000/svg" xmlns:xlink="http://www.w3.org/1999/xlink" width="34" height="34" viewBox="0 0 34 34">
  <defs>
    <clipPath id="clip-path">
      <rect id="Rectangle_11" data-name="Rectangle 11" width="34" height="34" transform="translate(851 436)" fill="#eee"/>
    </clipPath>
  </defs>
  <g id="Mask_Group_10" data-name="Mask Group 10" transform="translate(-851 -436)" clip-path="url(#clip-path)">
    <g id="redux" transform="translate(851 436)">
      <path id="Path_37" data-name="Path 37" d="M0,0H34V34H0Z" fill="none"/>
      <path id="Path_38" data-name="Path 38" d="M23.558,23.455a16.624,16.624,0,0,1-12.115,9.257,10.553,10.553,0,0,1-2.6.3c-3.188,0-6.109-1.328-7.528-3.5-1.9-2.9-2.553-9.042,3.727-13.587.127.693.388,1.644.56,2.207a10.157,10.157,0,0,0-2.951,3.461A6.356,6.356,0,0,0,3,28.3a6.056,6.056,0,0,0,4.417,2.563,11.687,11.687,0,0,0,7.052-1.328,15.482,15.482,0,0,0,7.1-6.792,2.476,2.476,0,0,1-.693-1.594,2.422,2.422,0,0,1,2.332-2.5h.09a2.43,2.43,0,0,1,.266,4.848Zm7.615-5.366c3.243,3.676,3.331,8,2.077,10.513a9.408,9.408,0,0,1-8.394,4.587,13.409,13.409,0,0,1-5.578-1.341c.608-.433,1.472-1.126,1.947-1.559a11.034,11.034,0,0,0,4.25.908A6.349,6.349,0,0,0,31.4,27.652a6,6,0,0,0,.088-5.105A11.584,11.584,0,0,0,26.9,17.008,16.469,16.469,0,0,0,17.675,14.2H16.9a2.446,2.446,0,0,1-2.125,1.472h-.082a2.425,2.425,0,0,1-.08-4.848H14.7a2.391,2.391,0,0,1,2.125,1.3h.693A17.551,17.551,0,0,1,31.174,18.089ZM9.193,24.2a1.942,1.942,0,0,1,.3-1.256A17.7,17.7,0,0,1,7.767,7.887C9.193,3.724,12.785.911,16.679.911c4.154,0,8.481,3.636,9,10.644-.648-.215-1.594-.531-2.162-.648-.141-2.292-2.077-8-6.665-7.918a7.483,7.483,0,0,0-5.312,2.422,11.605,11.605,0,0,0-2.561,6.707,15.834,15.834,0,0,0,2.25,9.605.731.731,0,0,1,.3-.042h.085a2.423,2.423,0,0,1,.088,4.845h-.088a2.433,2.433,0,0,1-2.422-2.335Z" transform="translate(0 -0.051)" fill="#764abc"/>
    </g>
  </g>
</svg>
