<svg xmlns="http://www.w3.org/2000/svg" xmlns:xlink="http://www.w3.org/1999/xlink" width="36" height="36" viewBox="0 0 36 36">
  <defs>
    <clipPath id="clip-path">
      <rect id="Rectangle_12" data-name="Rectangle 12" width="36" height="36" transform="translate(892 436)" fill="#eee"/>
    </clipPath>
  </defs>
  <g id="Mask_Group_11" data-name="Mask Group 11" transform="translate(-892 -436)" clip-path="url(#clip-path)">
    <path id="sass" d="M.35,16.1a1.588,1.588,0,0,0,.093.464,5.7,5.7,0,0,0,1.236,2.221,14.643,14.643,0,0,0,2.739,2.4c.857.616,1.731,1.218,2.591,1.829.148.1.287.226.448.354-.138.075-.253.14-.372.2a19.9,19.9,0,0,0-3.234,2A6.615,6.615,0,0,0,2.242,27.2a3.5,3.5,0,0,0-.406,3.372,1.991,1.991,0,0,0,.679.875,1,1,0,0,0,.333.172c.3.071.612.118.92.175h.87a5.411,5.411,0,0,0,2.628-.961,5.767,5.767,0,0,0,2.427-3.466,6.117,6.117,0,0,0-.036-3.2c-.028-.1-.064-.2-.1-.291s-.081-.188-.133-.307l1.972-1.134.03.025c-.036.117-.074.234-.106.353a7.985,7.985,0,0,0-.334,2.614,5.017,5.017,0,0,0,.878,2.622,1.272,1.272,0,0,0,1.991.022,4.592,4.592,0,0,0,.456-.721c.321-.664.619-1.339.926-2.01l.054-.123c-.022.318-.048.6-.06.876a3.339,3.339,0,0,0,.156,1.285.887.887,0,0,0,.751.667.944.944,0,0,0,.7-.257,2.977,2.977,0,0,0,.772-.917c.545-1,1.1-2,1.6-3.022.534-1.11,1-2.252,1.5-3.381l.082-.2c.117.461.2.912.35,1.339a12.658,12.658,0,0,0,.627,1.45.434.434,0,0,1-.056.553c-.647.78-1.283,1.569-1.919,2.358a5.3,5.3,0,0,0-.4.541,1.061,1.061,0,0,0-.138.391.5.5,0,0,0,.4.565,2.77,2.77,0,0,0,.776.055,4.548,4.548,0,0,0,2.407-.905,2.523,2.523,0,0,0,1-2.724,6.329,6.329,0,0,0-.272-.881.326.326,0,0,1,.035-.344,28.056,28.056,0,0,0,1.956-3.317.684.684,0,0,1,.088-.138,8.614,8.614,0,0,0,.989,2.808c-.261.252-.52.481-.755.732a5.048,5.048,0,0,0-1.2,1.891,2.234,2.234,0,0,0-.133.976.823.823,0,0,0,1.016.747,4.617,4.617,0,0,0,2.756-1.7,2.234,2.234,0,0,0,.315-2.04c-.054-.2-.118-.391-.187-.618.273-.085.538-.186.813-.249a7.21,7.21,0,0,1,4.215.247,3.181,3.181,0,0,1,1.837,1.6,1.843,1.843,0,0,1-.7,2.5,1.566,1.566,0,0,0-.253.173.249.249,0,0,0-.059.192c.006.035.1.079.153.079a1.4,1.4,0,0,0,.777-.321,2.394,2.394,0,0,0,1.1-1.668l.018-.054-.022-.467c-.009-.027.007-.054,0-.074a3.665,3.665,0,0,0-1.495-2.491,5.452,5.452,0,0,0-3.225-1.086,7.283,7.283,0,0,0-2.8.431c-.257.093-.512.2-.771.308-.035-.063-.072-.123-.1-.185a5.24,5.24,0,0,1-.658-1.687,3.776,3.776,0,0,1-.007-1.323c.1-.421.233-.835.357-1.251a.3.3,0,0,0-.185-.43.818.818,0,0,0-.225-.074,3.471,3.471,0,0,0-1.483.11.425.425,0,0,0-.335.337c-.022.109-.066.214-.1.322a8.046,8.046,0,0,1-.422,1.332c-.514,1.071-1.1,2.1-1.7,3.124-.065.11-.134.219-.216.353a4.622,4.622,0,0,1-.5-1.3,4,4,0,0,1-.007-1.571c.1-.389.224-.77.341-1.154a.267.267,0,0,0-.135-.374.8.8,0,0,0-.272-.106,3.338,3.338,0,0,0-1.535.126.415.415,0,0,0-.285.312,12.02,12.02,0,0,1-.456,1.409c-.8,1.824-1.614,3.638-2.431,5.452-.171.379-.37.744-.563,1.113a2.585,2.585,0,0,1-.181.264.215.215,0,0,1-.067-.137,3.775,3.775,0,0,1,.018-.7c.134-.682.289-1.36.452-2.035.135-.558.292-1.111.441-1.665a.523.523,0,0,0-.082-.515.77.77,0,0,0-.969-.117l-.123.069.024-.2a3.082,3.082,0,0,0-.046-1.264,1.006,1.006,0,0,0-1.057-.8,2.27,2.27,0,0,0-.749.143A5.666,5.666,0,0,0,12.4,20.589a.743.743,0,0,1-.217.188c-.83.46-1.662.914-2.493,1.37l-.926.507c-.248-.237-.474-.483-.73-.691-.782-.638-1.576-1.26-2.364-1.89A9.317,9.317,0,0,1,3.78,18.192a3.367,3.367,0,0,1-.657-1.834,4.3,4.3,0,0,1,.657-2.4,9.2,9.2,0,0,1,2.182-2.388,20.217,20.217,0,0,1,2.87-1.9,21.646,21.646,0,0,1,4.4-1.942A12.164,12.164,0,0,1,18.1,7.174a5,5,0,0,1,1.871.543,1.931,1.931,0,0,1,.983,1.065A2.664,2.664,0,0,1,21,10.275a5.7,5.7,0,0,1-1.49,2.595,10.067,10.067,0,0,1-4.115,2.607,11.319,11.319,0,0,1-2.8.6A5.273,5.273,0,0,1,10.3,15.8a2.978,2.978,0,0,1-1.261-.856c-.061-.072-.14-.149-.254-.082a.217.217,0,0,0-.094.281,2.75,2.75,0,0,0,.218.527,3,3,0,0,0,1,.946,4.886,4.886,0,0,0,2.483.682,12.492,12.492,0,0,0,3.915-.5,9.6,9.6,0,0,0,4.7-2.834,7.216,7.216,0,0,0,1.984-4.134,4,4,0,0,0-.374-2.278,4.117,4.117,0,0,0-1.8-1.756,7.6,7.6,0,0,0-3.536-.919H16.05a12.792,12.792,0,0,0-4.342.939A29.826,29.826,0,0,0,8.592,7.162a20.147,20.147,0,0,0-5.94,4.253A8.87,8.87,0,0,0,.693,14.508c-.12.346-.233.717-.319,1.074M8.357,25.909a4.557,4.557,0,0,1-1.622,3.155,3.69,3.69,0,0,1-1.855.926,1.362,1.362,0,0,1-.772-.054.788.788,0,0,1-.444-.807A2.919,2.919,0,0,1,4.1,27.642a5.315,5.315,0,0,1,1.359-1.493,20.833,20.833,0,0,1,2.657-1.791l.07-.029a4.664,4.664,0,0,1,.171,1.579Zm7.214-5.557a9.647,9.647,0,0,1-.271,1.213,35.748,35.748,0,0,1-1.515,4.006,6.911,6.911,0,0,1-.394.693.484.484,0,0,1-.081.1c-.166.164-.323.155-.407-.059a4.515,4.515,0,0,1-.209-.779,4.127,4.127,0,0,1-.037-.544,6.817,6.817,0,0,1,1.071-3.55,3.319,3.319,0,0,1,1.032-1.162,1.8,1.8,0,0,1,.457-.2c.244-.069.393.044.353.288Zm4.921,6.27,1.769-2.065C22.334,25.324,21.03,26.855,20.492,26.622Zm5.649-1.39c-.125.072-.261.123-.389.19s-.156,0-.159-.1a.684.684,0,0,1,.027-.207,4.446,4.446,0,0,1,1.332-2.146L27,22.944a1.9,1.9,0,0,1-.856,2.289Z" transform="translate(891.65 435.663)" fill="#cb6699" fill-rule="evenodd"/>
  </g>
</svg>
