<svg xmlns="http://www.w3.org/2000/svg" xmlns:xlink="http://www.w3.org/1999/xlink" width="34" height="34" viewBox="0 0 34 34">
  <defs>
    <clipPath id="clip-path">
      <rect id="Rectangle_13" data-name="Rectangle 13" width="34" height="34" transform="translate(932 436)" fill="#eee"/>
    </clipPath>
  </defs>
  <g id="Mask_Group_12" data-name="Mask Group 12" transform="translate(-932 -436)" clip-path="url(#clip-path)">
    <g id="tensorflow" transform="translate(932.963 436)">
      <path id="Path_39" data-name="Path 39" d="M19.77,23.1l4.59-2.663L28.893,23.1,24.36,25.71l-4.59-2.55ZM6,15.227,24.36,4.8l13.657,7.763L33.484,20.44l-9.123-5.213-13.77,7.82Z" transform="translate(-6 -4.8)" fill="#f6bd3a"/>
      <path id="Path_40" data-name="Path 40" d="M20.04,33.837V28.623l4.533-2.607,4.59-2.607v5.213L24.63,31.23v5.213l-4.59,2.664Zm0-10.427L15.45,20.8l-4.59,2.55V18.14l13.77-7.82V20.747ZM33.7,18.14V15.533l4.59-2.663.057,5.213-4.59,2.663Z" transform="translate(-6.27 -5.107)" fill="#eb8c23"/>
      <path id="Path_41" data-name="Path 41" d="M15.18,36.33V20.8l4.533-2.55.057,5.157,4.59,2.55v5.27l-4.59-2.437V39.107ZM8.267,21.993,6,20.633v-5.1l4.59,2.607v5.213Zm16.093-6.46V10.32l9.067,5.213.057,5.213-9.123-5.213Z" transform="translate(-6 -5.107)" fill="#e35a2b"/>
    </g>
  </g>
</svg>
