<svg xmlns="http://www.w3.org/2000/svg" width="32" height="32" viewBox="0 0 32 32">
  <g id="Typescript_logo_2020" transform="translate(-0.361 -0.361)">
    <rect id="Rectangle_17" data-name="Rectangle 17" width="32" height="32" rx="3" transform="translate(0.361 0.361)" fill="#3178c6"/>
    <path id="Path_36" data-name="Path 36" d="M130.715,248.274v3.195a6.86,6.86,0,0,0,1.853.6,12.083,12.083,0,0,0,2.236.2,10.437,10.437,0,0,0,2.172-.217,5.51,5.51,0,0,0,1.789-.7,3.159,3.159,0,0,0,1.214-1.342,4.83,4.83,0,0,0,.454-2.045,4.213,4.213,0,0,0-.262-1.533,3.01,3.01,0,0,0-.767-1.15,5.075,5.075,0,0,0-1.15-.894,14.26,14.26,0,0,0-1.533-.767c-.422-.173-.767-.339-1.15-.5a4.987,4.987,0,0,1-.831-.5,2.28,2.28,0,0,1-.543-.537,1.122,1.122,0,0,1-.192-.639,1.071,1.071,0,0,1,.173-.594,1.5,1.5,0,0,1,.479-.454,2.5,2.5,0,0,1,.767-.294,4.463,4.463,0,0,1,1.022-.1,5.906,5.906,0,0,1,.831.06,6.859,6.859,0,0,1,.895.185,7.094,7.094,0,0,1,.895.313,4.219,4.219,0,0,1,.767.441v-3a7.891,7.891,0,0,0-1.6-.415,12.815,12.815,0,0,0-1.981-.134,9.634,9.634,0,0,0-2.172.243,5.057,5.057,0,0,0-1.789.767,3.679,3.679,0,0,0-1.214,1.342,3.8,3.8,0,0,0-.447,1.917,3.6,3.6,0,0,0,.831,2.428,6.655,6.655,0,0,0,2.492,1.725c.441.179.831.358,1.214.53a5.45,5.45,0,0,1,.958.537,2.341,2.341,0,0,1,.639.607,1.261,1.261,0,0,1,.243.767,1.188,1.188,0,0,1-.147.575,1.257,1.257,0,0,1-.454.46,2.591,2.591,0,0,1-.767.307,4.671,4.671,0,0,1-1.086.109,5.792,5.792,0,0,1-2.045-.364,6.071,6.071,0,0,1-1.917-1.086Zm-5.367-7.859h4.089V237.8H118v2.62h4.089v11.692h3.259Z" transform="translate(-110.556 -222.364)" fill="#fff" fill-rule="evenodd"/>
  </g>
</svg>
