<svg xmlns="http://www.w3.org/2000/svg" width="38" height="38" viewBox="0 0 38 38">
  <g id="Typescript_logo_2020" transform="translate(-0.361 -0.361)">
    <rect id="Rectangle_17" data-name="Rectangle 17" width="38" height="38" rx="5" transform="translate(0.361 0.361)" fill="#3178c6"/>
    <path id="Path_36" data-name="Path 36" d="M133.193,250.385V254.2a8.2,8.2,0,0,0,2.214.718,14.438,14.438,0,0,0,2.672.237,12.472,12.472,0,0,0,2.6-.26,6.585,6.585,0,0,0,2.138-.84,3.775,3.775,0,0,0,1.451-1.6,5.772,5.772,0,0,0,.542-2.443,5.034,5.034,0,0,0-.313-1.832,3.6,3.6,0,0,0-.916-1.374,6.064,6.064,0,0,0-1.374-1.069,17.045,17.045,0,0,0-1.832-.916c-.5-.206-.916-.4-1.374-.6a5.96,5.96,0,0,1-.992-.6,2.724,2.724,0,0,1-.649-.641,1.341,1.341,0,0,1-.229-.763,1.28,1.28,0,0,1,.206-.71,1.787,1.787,0,0,1,.573-.542,2.981,2.981,0,0,1,.916-.351,5.333,5.333,0,0,1,1.222-.122,7.054,7.054,0,0,1,.992.072,8.191,8.191,0,0,1,1.069.221,8.48,8.48,0,0,1,1.069.374,5.042,5.042,0,0,1,.916.527V238.1a9.43,9.43,0,0,0-1.909-.5,15.313,15.313,0,0,0-2.367-.16,11.51,11.51,0,0,0-2.6.29,6.042,6.042,0,0,0-2.138.916,4.4,4.4,0,0,0-1.451,1.6,4.538,4.538,0,0,0-.534,2.29,4.3,4.3,0,0,0,.992,2.9,7.952,7.952,0,0,0,2.977,2.061c.527.214.992.428,1.451.634a6.512,6.512,0,0,1,1.145.641,2.8,2.8,0,0,1,.763.725,1.507,1.507,0,0,1,.29.916,1.419,1.419,0,0,1-.176.687,1.5,1.5,0,0,1-.542.55,3.1,3.1,0,0,1-.916.366,5.581,5.581,0,0,1-1.3.13,6.921,6.921,0,0,1-2.443-.435,7.256,7.256,0,0,1-2.29-1.3Zm-6.413-9.39h4.886v-3.13H118v3.13h4.886v13.971h3.894Z" transform="translate(-109.175 -219.496)" fill="#fff" fill-rule="evenodd"/>
  </g>
</svg>
