<svg xmlns="http://www.w3.org/2000/svg" xmlns:xlink="http://www.w3.org/1999/xlink" width="32.374" height="32" viewBox="0 0 32.374 32">
  <defs>
    <clipPath id="clip-path">
      <rect id="Rectangle_3" data-name="Rectangle 3" width="32" height="32" transform="translate(523 436)" fill="#fff"/>
    </clipPath>
  </defs>
  <g id="Group_105" data-name="Group 105" transform="translate(-846 112)">
    <g id="Mask_Group_4" data-name="Mask Group 4" transform="translate(323 -548)" opacity="0" clip-path="url(#clip-path)">
      <g id="javascript" transform="translate(523 436)">
        <path id="Path_19" data-name="Path 19" d="M4.8,4.8h32v32H4.8Z" transform="translate(-4.8 -4.8)" fill="#fff"/>
        <path id="Path_20" data-name="Path 20" d="M14.266,33.378,16.714,31.9c.473.838.9,1.546,1.933,1.546.988,0,1.611-.387,1.611-1.89V21.328h3.007V31.595c0,3.115-1.826,4.532-4.489,4.532a4.667,4.667,0,0,1-4.511-2.749" transform="translate(-5.852 -6.636)" fill="#fff"/>
        <path id="Path_21" data-name="Path 21" d="M26.229,33.034l2.448-1.418a3.273,3.273,0,0,0,2.964,1.826c1.246,0,2.041-.623,2.041-1.482,0-1.031-.816-1.4-2.191-2l-.752-.323c-2.17-.923-3.609-2.083-3.609-4.532,0-2.256,1.718-3.974,4.4-3.974a4.441,4.441,0,0,1,4.275,2.406l-2.341,1.5a2.048,2.048,0,0,0-1.933-1.289,1.308,1.308,0,0,0-1.439,1.289c0,.9.559,1.268,1.847,1.826l.752.322c2.556,1.1,4,2.213,4,4.726,0,2.707-2.127,4.189-4.983,4.189a5.777,5.777,0,0,1-5.477-3.072" transform="translate(-7.181 -6.615)" fill="#fff"/>
      </g>
    </g>
    <g id="vuejs" transform="translate(769.694 203.741)">
      <g id="Group_103" data-name="Group 103" transform="translate(76.306 -313.339)">
        <path id="Path_41" data-name="Path 41" d="M-141.176,0l-3.738,6.475L-148.652,0H-161.1l16.187,28.037L-128.727,0Z" transform="translate(161.101)" fill="#41b883"/>
      </g>
      <g id="Group_104" data-name="Group 104" transform="translate(82.781 -313.339)">
        <path id="Path_42" data-name="Path 42" d="M-95.3,0l-3.738,6.475L-102.777,0h-5.974l9.712,16.822L-89.326,0Z" transform="translate(108.751)" fill="#34495e"/>
      </g>
    </g>
  </g>
</svg>
